REM DIRINDEX 1\2\4,1\2\5,1\2\6,1\3\7,1\3\8,1\3\9,1\3\10
REM DIRNAME cjc057,folder01,folder02,folder03,folder04,folder05,folder06,folder07,folder08,folder09
TITLE ""
FILE "a_226.mp3" MP3
  TRACK 01 AUDIO
    TITLE "0:"
    INDEX 01 00:00:00
  TRACK 02 AUDIO
    TITLE "4:cjc057_04454"
    INDEX 01 00:00:13
  TRACK 03 AUDIO
    TITLE "0:"
    INDEX 01 00:01:36
  TRACK 04 AUDIO
    TITLE "5:cjc057_04455"
    INDEX 01 00:01:66
  TRACK 05 AUDIO
    TITLE "0:"
    INDEX 01 00:05:34
  TRACK 06 AUDIO
    TITLE "4:cjc057_04456"
    INDEX 01 00:06:39
  TRACK 07 AUDIO
    TITLE "0:"
    INDEX 01 00:07:64
  TRACK 08 AUDIO
    TITLE "5:cjc057_04457"
    INDEX 01 00:08:21
  TRACK 09 AUDIO
    TITLE "0:"
    INDEX 01 00:09:38
  TRACK 10 AUDIO
    TITLE "4:cjc057_04458"
    INDEX 01 00:10:43
  TRACK 11 AUDIO
    TITLE "0:"
    INDEX 01 00:11:64
  TRACK 12 AUDIO
    TITLE "5:cjc057_04459"
    INDEX 01 00:12:22
  TRACK 13 AUDIO
    TITLE "0:"
    INDEX 01 00:14:19
  TRACK 14 AUDIO
    TITLE "4:cjc057_04460"
    INDEX 01 00:15:25
  TRACK 15 AUDIO
    TITLE "0:"
    INDEX 01 00:16:40
  TRACK 16 AUDIO
    TITLE "5:cjc057_04461"
    INDEX 01 00:16:69
  TRACK 17 AUDIO
    TITLE "0:"
    INDEX 01 00:19:34
  TRACK 18 AUDIO
    TITLE "4:cjc057_04462"
    INDEX 01 00:20:41
  TRACK 19 AUDIO
    TITLE "0:"
    INDEX 01 00:21:74
  TRACK 20 AUDIO
    TITLE "5:cjc057_04463"
    INDEX 01 00:22:30
  TRACK 21 AUDIO
    TITLE "0:"
    INDEX 01 00:25:13
  TRACK 22 AUDIO
    TITLE "4:cjc057_04464"
    INDEX 01 00:26:20
  TRACK 23 AUDIO
    TITLE "0:"
    INDEX 01 00:27:34
  TRACK 24 AUDIO
    TITLE "5:cjc057_04465"
    INDEX 01 00:27:67
  TRACK 25 AUDIO
    TITLE "0:"
    INDEX 01 00:30:26
  TRACK 26 AUDIO
    TITLE "4:cjc057_04466"
    INDEX 01 00:31:35
  TRACK 27 AUDIO
    TITLE "0:"
    INDEX 01 00:32:47
  TRACK 28 AUDIO
    TITLE "5:cjc057_04467"
    INDEX 01 00:32:72
  TRACK 29 AUDIO
    TITLE "0:"
    INDEX 01 00:35:27
  TRACK 30 AUDIO
    TITLE "4:cjc057_04468"
    INDEX 01 00:36:35
  TRACK 31 AUDIO
    TITLE "0:"
    INDEX 01 00:37:57
  TRACK 32 AUDIO
    TITLE "5:cjc057_04469"
    INDEX 01 00:38:12
  TRACK 33 AUDIO
    TITLE "0:"
    INDEX 01 00:41:16
  TRACK 34 AUDIO
    TITLE "4:cjc057_04470"
    INDEX 01 00:42:21
  TRACK 35 AUDIO
    TITLE "0:"
    INDEX 01 00:43:44
  TRACK 36 AUDIO
    TITLE "5:cjc057_04471"
    INDEX 01 00:43:74
  TRACK 37 AUDIO
    TITLE "0:"
    INDEX 01 00:45:55
  TRACK 38 AUDIO
    TITLE "4:cjc057_04472"
    INDEX 01 00:46:64
  TRACK 39 AUDIO
    TITLE "0:"
    INDEX 01 00:48:20
  TRACK 40 AUDIO
    TITLE "5:cjc057_04473"
    INDEX 01 00:48:49
  TRACK 41 AUDIO
    TITLE "0:"
    INDEX 01 00:50:23
  TRACK 42 AUDIO
    TITLE "4:cjc057_04474"
    INDEX 01 00:51:30
  TRACK 43 AUDIO
    TITLE "0:"
    INDEX 01 00:52:65
  TRACK 44 AUDIO
    TITLE "5:cjc057_04475"
    INDEX 01 00:53:23
  TRACK 45 AUDIO
    TITLE "0:"
    INDEX 01 00:55:51
  TRACK 46 AUDIO
    TITLE "4:cjc057_04476"
    INDEX 01 00:56:55
  TRACK 47 AUDIO
    TITLE "0:"
    INDEX 01 00:58:07
  TRACK 48 AUDIO
    TITLE "5:cjc057_04477"
    INDEX 01 00:58:40
  TRACK 49 AUDIO
    TITLE "0:"
    INDEX 01 01:03:04
  TRACK 50 AUDIO
    TITLE "4:cjc057_04478"
    INDEX 01 01:04:11
  TRACK 51 AUDIO
    TITLE "0:"
    INDEX 01 01:05:46
  TRACK 52 AUDIO
    TITLE "5:cjc057_04479"
    INDEX 01 01:06:04
  TRACK 53 AUDIO
    TITLE "0:"
    INDEX 01 01:07:23
  TRACK 54 AUDIO
    TITLE "4:cjc057_04480"
    INDEX 01 01:08:27
  TRACK 55 AUDIO
    TITLE "0:"
    INDEX 01 01:09:38
  TRACK 56 AUDIO
    TITLE "5:cjc057_04481"
    INDEX 01 01:09:69
  TRACK 57 AUDIO
    TITLE "0:"
    INDEX 01 01:11:35
  TRACK 58 AUDIO
    TITLE "4:cjc057_04482"
    INDEX 01 01:12:40
  TRACK 59 AUDIO
    TITLE "0:"
    INDEX 01 01:13:57
  TRACK 60 AUDIO
    TITLE "5:cjc057_04483"
    INDEX 01 01:14:14
  TRACK 61 AUDIO
    TITLE "0:"
    INDEX 01 01:16:05
